<svg xmlns="http://www.w3.org/2000/svg" version="1.1" viewBox="0 0 256 90">
 <path style="fill:#ffffff" d="m81.62 18.82c-.7965 0-2.053.07689-2.617.1973-1.195.2545-1.946.6904-2.645 1.449-.2211.2419-.6613.7875-1.17 1.627l-7.174 11.87-1.861-12.16c-.1014-.6278-.2347-1.061-.4316-1.447-.349-.6847-.8661-1.168-1.902-1.387-.3351-.07198-.9851-.1465-1.732-.1465h-6.885l-4.736 22.29h7.203l2.916-13.72h.1836l2.24 13.72h3.527c.4895 0 .9041-.01643 1.186-.0625.9366-.1538 1.462-.5319 2.291-1.922l7.043-11.73h.2129l-2.914 13.71h7.174l4.734-22.29-4.643-.002zm7.463 0-.8320 3.918h7.039l.4609-2.16c.0691-.3628.1031-.6074.08008-.7871-.05758-.4849-.3624-.8108-.8516-.9238-.1382-.0311-.3684-.04687-.6621-.04687h-5.234zm57.18.002-4.734 22.3h7.119l.3223-1.484c1.607 1.202 2.954 1.77 5.211 1.77 5.142 0 9.574-3.19 10.76-8.777 1.128-5.302-1.474-8.744-6.496-8.744-2.464 0-4.29.5089-6.588 1.992l1.105-5.217c.0806-.3761.1150-.6172.1035-.7812-.0345-.4348-.2476-.7809-.6680-.9434-.1670-.06623-.4370-.1035-.9492-.1035l-5.188-.0078zm56.8 4.988c-2.47 0-6.761.2484-9.051 1.99-1.365 1.038-2.073 2.273-2.637 3.791h6.824c.8412-1.919 2.517-2.239 4.014-2.279 1.497-.04089 3.846.1316 3.08 3.213-3.052.07487-10.05.06067-13.09 1.9-1.532.9292-2.551 2.117-2.908 3.797-.8578 4.037 2.366 5.422 5.885 5.393 2.799-.02246 5.557-.9422 8.328-2.111-.0806.5390-.0972 1.087-.0684 1.609h7.365c-.5356-.8935-.5870-1.428-.3106-2.686l1.809-8.486c.2880-1.359.4147-2.652-.2246-3.727-1.399-2.337-6.346-2.4-9.018-2.4l-.002-.0039zm-71.01.09961c-2.758.000161-5.843.3509-8.525 2.082-2.476 1.612-4.106 3.918-4.693 6.666-1.422 6.694 4.082 8.942 9.523 8.934 4.946-.01152 9.666-1.42 12.58-5.443.0979-.1503.0411-.3086-.1777-.3086h-7.268c-1.1 1.275-2.193 1.912-3.984 1.912-2.361 0-3.956-1.45-3.576-3.959h15.81c.1612-1.044.3337-2.023.3164-3.062-.006-1.234-.4597-2.464-1.053-3.381-1.82-2.869-5.515-3.439-8.949-3.439h-.002zm47.1 0c-2.763.000322-5.841.3513-8.531 2.082-2.476 1.612-4.106 3.918-4.688 6.666-1.428 6.694 4.083 8.942 9.516 8.934 4.952-.01152 9.666-1.42 12.58-5.443.0979-.1503.0449-.3086-.1797-.3086h-7.266c-1.1 1.275-2.195 1.912-3.986 1.912-2.361 0-3.951-1.45-3.576-3.959h15.81c.1612-1.044.3395-2.023.3164-3.062-.006-1.234-.4597-2.464-1.053-3.381-1.819-2.869-5.514-3.439-8.939-3.439h-.002-.002zm-67.23.1484-.004.0098c-2.142 0-4.878.6543-7.43 2.436l.0703-.3418c.0633-.3518.0858-.5461.0801-.7051-.0173-.4567-.2010-.7769-.6445-.9355-.2015-.07026-.4841-.1328-1.256-.1328h-4.949l-3.553 16.72h7.152l1.557-7.346c.2937-1.31.5746-2.101.8398-2.635.7429-1.495 2.091-2.398 3.916-2.473 2.401-.09732 3.364 1.243 2.857 3.641l-1.896 8.811h7.125l1.859-8.777c.6508-3.061 1.209-5.523-1.232-7.195-1.285-.8827-2.805-1.078-4.492-1.078zm-18.77.3242-5.234.0059-3.555 16.72h7.031l3.189-14.97c.07487-.3628.1032-.6068.08594-.7871-.05758-.4849-.3622-.8113-.8555-.9238-.1353-.0311-.3690-.04687-.6621-.04687zm38.54 2.914c1.895-.07486 3.91 1.2 3.23 3.598h-8.107s.7193-3.431 4.877-3.598zm47.09 0c1.901-.07486 3.91 1.2 3.23 3.598h-8.107s.7193-3.431 4.877-3.598zm-23.67.5566h.002c2.268.000907 3.575 1.508 2.891 4.725-.6392 3.017-2.609 5.051-4.844 5.051-2.177 0-3.33-2.079-2.719-4.971.5988-2.809 2.557-4.803 4.67-4.805zm49.58 5.457c-.1785.5431-.5762 1.432-1.117 2-1.215 1.324-3.489 1.992-4.986 1.992-.9964 0-2.367-.4777-2.092-1.807.3973-1.829 3.307-1.933 4.516-1.998 1.221-.06508 3.68-.1875 3.68-.1875zm-64.41 12.9-.8320 3.918h7.039l.4609-2.16c.0706-.3635.1017-.6072.0801-.7871-.0576-.4844-.3613-.8109-.8535-.9238-.1346-.03096-.3672-.04687-.6602-.04687h-5.234zm36.76.0059-1.139 5.387h-3.479l-.9336 4.383h3.479l-1.752 8.234c-.7775 3.662.7784 4.727 5.104 4.727 1.941 0 3.719-.1263 5.107-.3105l.8770-4.135c-.8810.03167-1.55.0625-2.361.0625-1.785 0-2.113-.2190-1.785-1.754l1.445-6.824h4.383l.8633-4.059c.0806-.3610-.2188-.3242-.2188-.3242h-4.094l.8633-4.07c.2822-1.317-1.102-1.314-1.102-1.314l-5.258-.002zm47.36 4.83c-7.1 0-12.21 2.955-13.48 8.934-1.295 6.097 2.373 8.936 9.691 8.936 7.257 0 11.03-2.685 13-7.408h-6.824c-.8752 2.102-2.711 3.141-5.146 3.141-3.11 0-4.522-1.678-3.889-4.664.6335-2.987 2.822-4.666 5.84-4.666 2.741 0 3.865 1.038 3.783 2.836h6.645c.5356-5.244-3.461-7.102-9.615-7.102l-.002-.0059zm-24.78.08789c-2.764 0-5.844.3511-8.527 2.082-2.476 1.612-4.106 3.918-4.693 6.666-1.422 6.693 4.082 8.942 9.523 8.934 4.946-.01152 9.666-1.422 12.57-5.443.1036-.1509.0469-.3066-.1777-.3066h-7.262c-1.1 1.277-2.199 1.912-3.984 1.912-2.361 0-3.958-1.45-3.578-3.959h15.81c.1612-1.044.3395-2.023.3223-3.062-.006-1.233-.4597-2.463-1.053-3.381-1.82-2.869-5.523-3.439-8.951-3.439l-.002-.002zm-36.41.3672.002.0059c-2.142 0-4.878.6557-7.43 2.436l.0684-.3418c.0633-.3530.0801-.5450.0801-.7051-.0173-.4561-.2010-.7760-.6445-.9336-.2015-.06968-.4841-.1328-1.256-.1328h-4.951l-3.559 16.72h7.152l1.561-7.344c.2937-1.31.5746-2.104.8398-2.637.7429-1.495 2.085-2.397 3.916-2.471 2.401-.0979 3.364 1.243 2.857 3.641l-1.895 8.811h7.117l1.865-8.777c.6508-3.06 1.209-5.524-1.232-7.197-1.285-.8818-2.81-1.076-4.492-1.076zm-24.12.2812-3.553 16.72h7.031l3.238-14.96c.0749-.3634.1031-.6074.0801-.7871-.0576-.4854-.3567-.8119-.8516-.9258-.1324-.0311-.3684-.04687-.6621-.04687l-5.283-.002zm60.14 2.736c1.895-.07486 3.912 1.2 3.232 3.598h-8.115s.7250-3.431 4.883-3.598z"/>
</svg>
